<svg xmlns="http://www.w3.org/2000/svg" xmlns:xlink="http://www.w3.org/1999/xlink" version="1.1" width="1000" height="1000" viewBox="0 0 1000 1000" xml:space="preserve">
<desc>Created with Fabric.js 3.5.0</desc>
<defs>
</defs>
<rect x="0" y="0" width="100%" height="100%" fill="#ffffff"/>
<g transform="matrix(1.7756 0 0 1.7756 500.0081 500.0079)" id="159443">
<path style="stroke: none; stroke-width: 1; stroke-dasharray: none; stroke-linecap: butt; stroke-dashoffset: 0; stroke-linejoin: miter; stroke-miterlimit: 4; is-custom-font: none; font-file-url: none; fill: rgb(0,0,0); fill-rule: nonzero; opacity: 1;" vector-effect="non-scaling-stroke" transform=" translate(-256, -247.185)" d="m 0 150.27 l 18.66 1.39 C 38 129.78 45.6 65.06 159.61 77.72 C 155.47 355.03 33.86 384.28 41.46 441.17 c 2.76 32.24 28.33 52.05 55.96 53.2 c 87.3 -2.99 83.38 -120.68 110.56 -417.34 H 320.6 c -5.98 104.57 -22.34 209.13 -24.18 311.63 c 1.38 68.17 42.84 104.56 97.43 105.02 c 89.82 3 118.15 -101.8 118.15 -146.48 h -19.35 c -1.84 36.85 -19.57 63.34 -57.35 64.95 c -102.95 1.38 -46.29 -181.03 -45.6 -333.74 l 122.3 0.7 l -0.69 -78.08 C 2.98 -1.44 67.5 -11.4 0 150.27 z" stroke-linecap="round"/>
</g>
</svg>